<svg width="152" height="133" viewBox="0 0 152 133" fill="none" xmlns="http://www.w3.org/2000/svg">
<path d="M62.7463 37.6631C58.8089 38.7922 56.5272 42.9086 57.6209 46.7228L78.9663 121.163C80.0953 125.1 84.2117 127.382 88.149 126.253L144.133 110.2C148.07 109.071 150.352 104.954 149.223 101.017L127.878 26.5771C126.749 22.6397 122.667 20.481 118.73 21.61L108.518 24.5384L109.647 28.4757C110.776 32.4131 108.494 36.5294 104.557 37.6585L83.1474 43.7975C79.2101 44.9265 75.0937 42.6447 73.9647 38.7074L72.8357 34.7701L62.7463 37.6631Z" fill="#6684FF"/>
<path d="M73.6028 28.1583L76.4253 38.0017C77.1662 40.5855 79.8577 42.0775 82.4416 41.3365L103.974 35.1623C106.558 34.4213 108.05 31.7299 107.309 29.146L104.486 19.3027C103.745 16.7188 101.054 15.2269 98.4699 15.9678L96.2552 16.6029C96.2199 16.4798 96.1846 16.3568 96.1493 16.2337C94.7733 11.4351 89.8653 8.71455 85.0667 10.0905C80.2681 11.4665 77.5475 16.3745 78.9235 21.1732C78.9588 21.2962 78.9941 21.4192 79.0294 21.5423L76.8146 22.1773C74.3891 23.006 72.8971 25.6975 73.6028 28.1583ZM86.5133 15.1352C88.605 14.5354 90.6632 15.6763 91.2982 17.8911C91.3335 18.0141 91.3335 18.0141 91.3688 18.1372L83.9863 20.2541C83.951 20.131 83.9157 20.008 83.8805 19.8849C83.316 17.9163 84.4215 15.735 86.5133 15.1352Z" fill="#6684FF"/>
<path d="M32.5392 25.6101C28.6019 24.481 24.4855 26.7628 23.3918 30.5771L2.04642 105.017C0.917414 108.955 3.19917 113.071 7.1365 114.2L63.1204 130.253C67.0577 131.382 71.1741 129.1 72.3031 125.163L93.6485 50.7229C94.7775 46.7855 92.4604 42.7922 88.5231 41.6632L78.3107 38.7348L77.1817 42.6721C76.0527 46.6095 71.9363 48.8912 67.9989 47.7622L46.5897 41.6232C42.6524 40.4942 40.3706 36.3778 41.4996 32.4405L42.6286 28.5031L32.5392 25.6101Z" fill="#FBBE37"/>
<path d="M46.783 23.3026L43.9604 33.1459C43.2195 35.7298 44.7114 38.4213 47.2953 39.1622L68.8276 45.3365C71.4114 46.0774 74.1029 44.5855 74.8439 42.0016L77.6664 32.1583C78.4073 29.5744 76.9154 26.8829 74.3315 26.142L72.1168 25.507C72.152 25.3839 72.1873 25.2609 72.2226 25.1378C73.5986 20.3392 70.878 15.4312 66.0794 14.0552C61.2808 12.6792 56.3728 15.3998 54.9968 20.1984C54.9615 20.3215 54.9262 20.4445 54.8909 20.5675L52.6762 19.9325C50.1801 19.3499 47.4886 20.8418 46.783 23.3026ZM64.6329 19.0999C66.7246 19.6997 67.8654 21.7579 67.2304 23.9727C67.1951 24.0957 67.1951 24.0957 67.1598 24.2187L59.7773 22.1018C59.8126 21.9788 59.8479 21.8558 59.8832 21.7327C60.4477 19.7641 62.5412 18.5001 64.6329 19.0999Z" fill="#FBBE37"/>
<path d="M46.424 35.3521C42.328 35.3521 39 38.6801 39 42.6481V120.088C39 124.184 42.328 127.512 46.424 127.512H104.664C108.76 127.512 112.088 124.184 112.088 120.088V42.6481C112.088 38.5521 108.76 35.3521 104.664 35.3521H94.04V39.4481C94.04 43.5441 90.712 46.8721 86.616 46.8721H64.344C60.248 46.8721 56.92 43.5441 56.92 39.4481V35.3521H46.424Z" fill="#3754DB" stroke="white" stroke-width="2"/>
<path d="M59.48 29.208V39.448C59.48 42.136 61.656 44.312 64.344 44.312H86.744C89.432 44.312 91.608 42.136 91.608 39.448V29.208C91.608 26.52 89.432 24.344 86.744 24.344H84.44C84.44 24.216 84.44 24.088 84.44 23.96C84.44 18.968 80.472 15 75.48 15C70.488 15 66.52 18.968 66.52 23.96C66.52 24.088 66.52 24.216 66.52 24.344H64.216C61.656 24.472 59.48 26.648 59.48 29.208ZM75.48 20.248C77.656 20.248 79.32 21.912 79.32 24.216C79.32 24.344 79.32 24.344 79.32 24.472H71.64C71.64 24.344 71.64 24.216 71.64 24.088C71.64 22.04 73.304 20.248 75.48 20.248Z" fill="#3754DB"/>
</svg>
