<svg width="1440" height="282" viewBox="0 0 1440 282" fill="none" xmlns="http://www.w3.org/2000/svg">
<path d="M265.5 0.700012C264.6 1.00006 262.575 2.20001 261 3.40002C258.188 5.50006 258.188 5.60004 258.525 20.7C258.637 29.1 258.975 36.0001 259.312 36.0001C259.538 36.0001 261.112 35.5001 262.8 35.0001C265.387 34.1 265.612 34.2 264.487 35.4C263.812 36.1 261.675 37.0001 259.875 37.2C257.4 37.5001 256.5 37.2 255.825 35.6C255.375 34.4 254.587 45.6 254.025 60.5001C253.462 75.3 252.787 88.1 252.562 88.7C251.775 90.7 246.938 90.2 244.688 88C243.112 86.4 241.2 86 236.362 86C230.512 86 229.837 86.3 227.587 89.3C226.125 91 225 91.9 225 91.2C225 90.6 224.55 90 223.987 90C223.537 90 222.75 100.2 222.3 112.7C220.5 168.9 219.15 195.6 218.137 196.5C217.35 197.2 216.45 196.8 215.325 195.5C213.637 193.5 213.637 193.5 211.5 196C210.262 197.4 209.25 199.6 209.25 200.9C209.25 203.7 207.45 202.7 206.775 199.5C206.55 198.3 204.75 197 201.938 196.1C199.462 195.3 196.987 194 196.537 193.3C195.412 191.7 188.662 192.5 184.837 194.6C181.462 196.5 178.425 196.4 179.325 194.5C179.662 193.7 179.438 193 178.762 193C178.087 193 177.975 192.5 178.425 191.9C179.438 190.5 172.575 185 169.762 185C168.412 185 167.625 184.3 167.625 183C167.625 180.1 165.375 180.6 161.887 184.2L158.738 187.5L158.625 182.2C158.625 177.1 158.738 176.9 161.212 177.5L163.688 178.1L161.212 176.2C158.962 174.4 158.85 173.4 158.738 157.9C158.625 148.9 158.175 141.2 157.725 140.9C157.275 140.5 151.65 139.7 145.125 139.1C131.4 137.8 129.037 136.4 126.675 128.4C125.212 123.8 125.1 123.7 124.312 126.2C123.188 129.9 121.612 129.7 120.712 126C120.15 123.4 119.7 123.1 117.675 123.6C113.85 124.7 110.25 127.1 110.25 128.6C110.25 129.4 109.688 130 109.012 130C108.337 130 108 130.6 108.337 131.3C108.675 132 107.887 133.2 106.762 133.9C103.95 135.4 102.487 138.9 101.812 145.2C101.137 152.6 100.125 152.3 100.125 144.7C100.125 140.9 99.675 138 99 138C98.325 138 97.875 142.1 97.875 148.2C97.875 157 97.5375 158.7 95.625 160.5C93.9375 162.1 93.375 164.1 93.2625 169.8C93.15 175.9 92.7 177.3 90.7875 178.5C88.875 179.7 88.7625 180.2 90 181.5C92.8125 184.5 90.225 184 86.7375 180.8C84.0375 178.4 83.25 178 83.25 179.4C83.25 180.3 82.575 181 81.675 180.8C78.075 180.2 79.5375 182.4 83.25 183.4C86.625 184.2 86.85 184.4 84.6 184.8C80.8875 185.3 81.5625 186.7 86.2875 188.1C88.65 188.7 90.9 189.8 91.35 190.3C92.475 192 91.125 193.1 88.875 192.5C87.75 192.2 86.5125 192.4 86.0625 193C85.5 193.8 84.825 193.6 83.925 192.5C82.4625 190.6 72 189.5 72 191.1C72 191.6 70.875 192.5 69.525 193L66.9375 193.9L69.4125 194.6C70.875 194.9 72 195.7 72 196.4C72 197 72.3375 198.5 72.675 199.7C73.2375 201.5 72.9 202 71.325 202C67.725 202 65.7 200.4 67.275 198.8C68.2875 197.6 67.6125 197.4 63.225 197.4L57.9375 197.5L57.825 192.7C57.6 187 57.15 186.5 54.225 188.1C52.0875 189.3 52.0875 189.3 54.1125 191.1C56.475 193.2 56.925 196 55.0125 196C54.3375 196 54.1125 196.7 54.45 197.6C54.9 198.8 54.675 199.1 53.4375 198.6C51.6375 198 50.625 200.7 50.9625 205C51.1875 207.5 51.075 207.5 41.85 207.5C32.9625 207.5 30.0375 206.9 32.625 205.5C34.65 204.4 33.75 203 30.9375 203C28.575 203 28.125 203.5 28.125 206C28.125 208.5 27.675 209 25.425 209C23.85 209 22.275 209.5 21.825 210.2C21.2625 210.9 20.475 209.9 19.575 207.4C18.9 205.3 18.225 204.3 18.1125 205.4C18 207 17.4375 206.8 14.4 204.1C11.25 201.4 10.575 201.1 9.5625 202.4C8.4375 203.6 8.1 203.6 6.975 201.9C4.8375 198.9 1.575 199.5 0.675 203.1C0.3375 204.8 0 294.2 0 401.6V597H720H1440V346.7C1440 209.1 1439.55 95.9 1439.1 95.2C1438.31 94.2 1437.41 94.2 1434.26 95.4C1427.29 97.9 1407.38 99.1 1367.66 99.3C1330.88 99.5 1328.4 99.4 1327.39 97.7C1326.71 96.7 1324.91 95.5 1323.45 95C1321.09 94.2 1320.75 93.4 1320.75 89.1V84.2L1315.12 83.0001C1310.4 82.0001 1309.39 81.4 1308.82 79.1C1308.49 77.7 1307.59 75.4 1306.91 74.2C1305.9 72.2 1306.01 71.7 1307.59 70.8C1309.5 69.9 1309.5 69.7 1307.59 66.9C1306.57 65.3 1304.78 64.0001 1303.65 64.0001C1300.84 64.0001 1301.06 60.9 1303.88 60.3C1305.11 60.0001 1306.12 59.4 1306.12 59.0001C1306.12 58.6 1305.11 58.0001 1303.88 57.7C1301.29 57.1 1300.84 54.0001 1303.31 54.0001C1304.21 54.0001 1305 53.3 1305 52.5001C1305 51.7 1304.21 51.0001 1303.31 51.0001C1301.96 51.0001 1301.62 49.6 1301.62 44.2C1301.62 34.1 1299.82 33.2 1298.81 42.9C1298.36 47.3 1297.8 51.0001 1297.46 51.0001C1297.12 51.0001 1294.88 50.5001 1292.51 49.9C1289.14 48.9 1287.79 49.0001 1286.44 50.0001C1284.3 51.6 1284.53 57.4 1286.78 57.6C1287.45 57.7 1288.91 57.8 1289.81 57.9C1290.71 57.9 1291.5 58.7 1291.5 59.5001C1291.5 60.5001 1290.38 61.0001 1288.01 61.0001C1284.19 61.0001 1283.85 63.4 1287.67 63.6C1292.85 63.8 1293.75 64.1 1293.75 65.6C1293.75 66.9 1292.85 67.1 1289.81 66.8C1286.78 66.5001 1285.88 66.8 1285.88 68.0001C1285.88 69.1 1286.78 69.6 1288.46 69.6C1289.92 69.5001 1290.94 70.1 1290.94 71.0001C1290.94 71.9 1289.81 72.5001 1288.12 72.5001C1285.54 72.5001 1285.31 73.0001 1284.97 77.2C1284.64 81.1 1284.3 81.9 1282.16 82.2C1280.59 82.4 1279.57 83.3 1279.35 84.8C1279.12 86 1278 87.5 1276.88 88C1275.64 88.6 1274.29 90.5 1273.72 92.3C1273.05 94.8 1272.15 95.6 1269.67 95.8C1267.99 96 1266.3 96.8 1266.07 97.5C1265.74 98.2 1263.49 99.2 1261.01 99.5C1255.39 100.4 1254.15 102.8 1255.72 109.5C1257.41 116.6 1256.51 172.2 1254.6 174.2C1253.59 175.4 1253.47 176.5 1254.38 178.4C1255.05 180.2 1255.16 181.8 1254.38 182.9C1253.7 184.1 1253.81 185.1 1254.6 185.8C1255.72 186.8 1255.5 190.8 1253.81 197.5C1253.47 199.1 1252.91 201.5 1252.57 202.7C1252.35 204 1251.34 205 1250.44 205C1248.07 205 1248.3 207 1250.78 207C1251.9 207.1 1251 207.9 1248.53 209C1245.15 210.6 1243.8 210.8 1240.99 209.9C1237.05 208.7 1236.49 207.4 1236.15 198.5C1235.81 192.8 1235.7 192.5 1232.78 192.2C1230.3 191.9 1229.62 191.3 1229.62 189.4C1229.62 185.5 1225.46 184.8 1202.62 184.6C1191.15 184.4 1180.46 184 1178.66 183.6C1176.75 183.1 1175.06 183.2 1173.94 184C1173.04 184.7 1170.79 185 1168.88 184.8C1165.72 184.4 1165.5 184.6 1164.82 188.8C1164.26 192 1163.47 193.4 1161.56 194C1158.86 194.9 1157.62 198.4 1157.62 205.6C1157.62 213.2 1155.04 216.3 1149.53 215.2C1148.4 215 1147.5 214.2 1147.5 213.3C1147.5 212.5 1146.82 212.1 1146.15 212.4C1145.36 212.6 1142.66 213.4 1140.19 214.1C1137.71 214.8 1134.79 216 1133.66 216.8C1131.41 218.6 1121.62 219.3 1121.96 217.7C1122.07 217.1 1121.29 216.6 1120.16 216.5C1119.04 216.5 1117.69 215.8 1117.12 215C1116.22 213.8 1116 213.8 1115.89 215.5C1115.1 223.3 1113.97 200.6 1113.86 176.8L1113.75 148.2L1109.14 139.4C1104.86 131.1 1104.53 129.8 1103.96 118.8C1103.62 112.3 1102.95 107.3 1102.5 107.5C1102.05 107.7 1101.15 112.5 1100.25 118.1L1098.79 128.2L1090.8 127.5C1086.41 127.1 1082.47 126.6 1082.14 126.4C1081.69 126.2 1081.01 121.5 1080.56 116C1079.66 104.5 1077.75 101.6 1077.75 111.6C1077.75 121.4 1075.61 130.6 1071.56 138.5C1068.07 145.3 1067.96 146.4 1066.95 163.5C1066.39 173.4 1066.05 185.9 1066.16 191.2C1066.39 200.3 1066.28 201 1064.25 201C1063.01 201 1061.1 200 1059.86 198.9C1058.4 197.5 1056.82 196.9 1055.36 197.3C1053.79 197.6 1053 197.3 1053 196.4C1053 194.7 1049.51 193 1045.8 193C1043.44 193 1042.88 192.5 1042.88 190.6C1042.88 189.2 1042.31 187.8 1041.64 187.4C1040.06 186.6 1038.38 188.8 1038.38 191.7C1038.38 193.4 1037.7 194 1035.9 194C1034.21 194 1032.41 195.2 1030.72 197.5C1029.38 199.4 1027.57 201 1026.67 201C1025.66 201 1024.99 203.4 1024.42 209.6C1023.64 219.6 1022.06 223.4 1020.82 218.4C1020.15 215.4 1019.7 215.2 1014.07 214.5C1010.81 214.2 1006.88 213 1005.19 211.8C1002.15 209.7 1002.04 209.7 990.562 212.1C987.525 212.7 982.8 213.3 980.212 213.3C976.05 213.4 975.375 213.8 974.812 216.1C974.137 218.6 973.8 218.7 963.787 219.4C955.575 219.9 953.1 220.4 951.75 221.9C950.85 222.9 948.825 224.3 947.362 225C945.45 225.9 945.112 226.5 946.012 227.3C947.812 228.9 947.587 234 945.787 234C945 234 943.312 233.3 942.075 232.5C940.95 231.7 938.25 231 936.337 231C933.412 231 932.512 230.5 932.062 228.7C931.275 225.6 928.125 208.7 928.125 207.6C928.125 204.8 926.775 208.7 925.2 216C924.3 220.7 923.062 224.9 922.725 225.5C922.275 226 921.938 226.9 921.938 227.5C921.6 230.2 919.688 231.9 916.312 232.4C914.175 232.8 911.925 233.8 911.362 234.8C910.462 236 910.125 233.8 910.125 227V217.5L906.075 215.7C903.938 214.8 901.125 214 899.887 214C898.65 214 897.975 213.6 898.312 213C898.762 212.4 896.962 212 893.925 212H888.75V205.5V199H883.237C880.2 199 876.487 198.6 875.025 198.1C872.775 197.3 862.537 198.4 860.737 199.6C860.512 199.8 860.062 202.5 859.612 205.7L858.938 211.5L854.212 211.8L849.375 212.1V188.2C849.375 175.1 849.037 161.6 848.7 158.3L847.912 152.2L832.387 151.5C817.425 150.8 816.75 150.7 816.637 148.7V146.5L815.4 148.6C814.612 150.2 812.475 151.1 807.637 151.9L801 153.1V168.9V184.8L797.175 185.4C794.137 185.9 792.9 186.9 790.987 190.3C789.188 193.6 787.725 194.7 784.462 195.5L780.188 196.6L779.4 209C778.95 215.9 778.275 222.1 777.938 222.8C777.262 224.5 767.587 224 753.862 221.6C743.287 219.7 741.375 218.8 742.162 216C742.5 214.9 742.05 213 741.037 211.7C739.8 209.9 739.575 208.3 740.25 204.9C740.812 202.4 740.812 200.1 740.25 199.6C738.787 198.3 738.337 200.2 737.55 209.3C736.762 218.1 735.525 221 732.375 221C730.35 221 730.125 220.1 729.9 208.8L729.562 196.6L726.188 195.8C724.387 195.3 719.1 194.8 714.712 194.8L706.5 194.6V189.9C706.5 185.4 706.275 185.1 703.462 184.8C700.425 184.5 700.312 184.2 699.75 177.5L699.075 170.5L698.625 177.5C698.062 184.2 697.95 184.5 695.137 184.8L692.212 185.1L691.537 200.2C691.087 208.5 690.75 218.6 690.75 222.6C690.75 228.2 690.412 229.9 688.95 230.4C687.938 230.7 686.7 230.8 686.138 230.4C685.575 230.1 685.125 216.5 685.125 199.1V168.3L680.625 167.6C676.125 167 676.125 167 676.013 162.2C675.787 153 675.45 152.6 665.438 151.5C657.337 150.6 656.438 150.3 655.763 148L654.975 145.5L654.862 148.2L654.75 151H645.862C632.812 151 632.925 150.7 631.237 175.8C630.675 183.7 629.888 190.4 629.55 190.7C629.212 191.1 628.875 183.7 628.875 174.3V157.2L625.388 156.6C623.475 156.3 620.662 156 619.312 156C617.962 156 616.162 155.3 615.375 154.5C614.25 153.4 611.325 153 602.888 153C596.7 153 590.85 153.4 589.725 154C588.712 154.5 585.337 155.3 582.188 155.8C577.125 156.5 576.562 156.8 576.225 159.3C576 160.8 575.212 162 574.537 162C570.15 162.1 569.812 163.5 569.138 182.7L568.575 201.5L568.35 179.9L568.125 158.2L564.862 157.1C561.263 155.7 522.787 155.9 521.212 157.3C520.425 158.1 519.075 181.2 518.737 200.2C518.625 206.8 518.513 207 515.7 207C514.125 207 511.312 206.1 509.512 204.9C507.712 203.8 505.462 203 504.675 203.3C502.987 203.9 501.75 200.1 501.75 194.4C501.75 191.6 501.3 191 499.275 191C494.325 190.9 488.925 187.7 488.137 184.5L487.35 181.5L487.125 184.5C487.012 187 486.787 187.2 486.112 185.6C485.325 183.7 485.212 183.7 484.65 185.8C483.975 187.9 483.3 188 474.188 188C465.525 188 464.4 187.8 463.837 186.1C463.275 184.3 462.487 184.1 448.65 182.3L444.375 181.8V156.5V131.2L440.212 130.6C437.85 130.2 434.362 129.9 432.45 129.9C429.412 130 427.5 128.7 419.85 121.5C414.9 116.8 410.512 112 410.287 110.8C409.837 108.7 409.837 108.7 409.612 110.6C409.612 111.8 408.262 113.2 406.688 113.8C404.1 114.9 403.875 115.4 403.875 122.2C403.875 128.4 403.537 129.7 401.625 130.8C399.487 131.9 399.375 133.1 399.375 147.4V162.7L387.45 162.6C376.537 162.5 375.412 162.7 373.612 164.7C372.487 165.8 370.35 167 368.887 167.2C366.525 167.5 366.075 168.1 365.625 172.5L365.062 177.5H358.425C352.237 177.6 351.45 177.9 348.188 181.3C346.275 183.3 343.35 185.4 341.663 185.9C338.85 186.9 338.625 187.3 338.625 193.4C338.625 200.4 337.95 200.9 330.188 201C322.312 201.1 321.75 201.6 321.75 209.2C321.75 215.5 321.637 216 319.95 214.6C319.05 213.7 317.7 213 317.137 213C316.575 213 316.125 202.7 316.125 188C316.125 169.6 315.788 163 314.775 163C314.1 163 312.75 162.3 311.737 161.4C310.725 160.5 306.45 158.1 302.062 156.1L294.188 152.4L293.85 121.7L293.625 91L291.038 90.5C289.688 90.2 286.538 89.6 284.062 89.2L279.562 88.4V74.5001C279.562 66.8 280.012 54.4 280.462 47.0001C281.025 38.7 280.913 34.0001 280.237 34.9C278.325 37.4 276.413 32.3 277.312 27.1C278.775 19.2 278.1 7.60004 276.188 6.40002C274.95 5.60004 274.95 5.00006 275.85 4.20001C276.75 3.40002 276.413 2.80005 274.387 2.20001C269.55 0.500061 267.188 0.200012 265.5 0.700012ZM266.625 6.40002C266.625 7.50006 264.487 7.90002 263.812 7.00006C263.475 6.50006 263.925 6.00006 264.825 6.00006C265.837 6.00006 266.625 6.20001 266.625 6.40002ZM268.65 16.7C270.225 17.9 270.225 18.0001 268.538 18.0001C266.288 18.0001 265.95 19.6 268.087 20.3C268.762 20.6 267.525 20.9 265.275 20.9C261.562 21.0001 261 20.7 261 18.7C261 17.5001 261.45 16.0001 261.9 15.4C263.137 13.8 265.95 13.1 266.512 14.4C266.737 15.0001 267.637 16.1 268.65 16.7ZM266.625 24.1C266.625 25.2 263.587 25.3 262.8 24.1C262.462 23.7 262.462 23.0001 262.8 22.7C263.7 21.9 266.625 23.0001 266.625 24.1ZM265.05 29.5001C264.938 32.7 261.788 32.4 261.562 29.2C261.45 27.7 262.012 27.0001 263.362 27.0001C264.712 27.0001 265.163 27.7 265.05 29.5001ZM1293.53 53.3C1293.86 54.6 1293.07 55.0001 1290.49 55.0001C1286.21 55.0001 1284.97 53.3 1288.35 52.1C1291.61 50.9 1293.07 51.2 1293.53 53.3ZM1298.03 55.7C1297.46 58.2 1294.88 58.5001 1294.88 56.1C1294.88 54.9 1295.55 54.0001 1296.67 54.0001C1297.69 54.0001 1298.25 54.7 1298.03 55.7ZM1297.8 61.0001C1298.7 61.0001 1299.04 61.6 1298.7 62.5001C1297.69 64.6 1295.66 64.4 1293.86 61.9C1292.62 60.0001 1292.62 59.8 1294.31 60.4C1295.32 60.7 1296.9 61.0001 1297.8 61.0001ZM1297.69 70.0001C1297.12 70.8 1296.45 70.8 1295.78 70.2C1295.1 69.6 1294.99 68.6 1295.44 68.0001C1296 67.2 1296.67 67.2 1297.35 67.8C1298.03 68.4 1298.14 69.4 1297.69 70.0001ZM1290.71 77.5001C1290.38 78.3 1289.7 79.0001 1289.14 79.0001C1288.01 79.0001 1287.79 76.6 1288.8 75.7C1290.04 74.6 1291.5 76.0001 1290.71 77.5001ZM1395.45 107.2C1403.1 107.6 1403.32 109.6 1395.9 110.7C1390.39 111.5 1389.94 111.7 1389.6 114.5C1388.81 121.9 1388.81 122 1381.72 122C1371.26 122 1371.49 121.5 1371.15 144.2C1370.92 156.6 1370.36 164.3 1369.57 165C1368.9 165.6 1361.7 166.7 1353.49 167.5C1345.39 168.3 1336.84 169.2 1334.47 169.5C1326.71 170.5 1326.94 171.4 1326.94 138.5C1326.94 113.3 1327.16 108.8 1328.62 108C1329.53 107.4 1342.57 107 1358.1 107C1376.21 107 1386.11 106.6 1386.56 106C1387.12 105.3 1387.8 105.2 1388.7 105.9C1389.38 106.4 1392.52 107 1395.45 107.2ZM159.412 191.2C159.075 192 158.738 191.7 158.738 190.6C158.625 189.5 158.962 188.9 159.3 189.3C159.637 189.6 159.75 190.5 159.412 191.2ZM83.25 196.6C83.25 197.8 82.4625 198.1 80.4375 197.8C78.525 197.4 77.625 197.7 77.625 198.7C77.625 200.3 75.2625 200.1 75.15 198.5C75.0375 197.4 79.65 195 81.9 195C82.575 195 83.25 195.7 83.25 196.6ZM82.35 201.2C81.5625 201.9 81 202 81 201.4C81 200 82.35 198.8 83.1375 199.5C83.3625 199.8 83.025 200.6 82.35 201.2ZM87.4125 201.2C87.075 202 86.7375 201.7 86.7375 200.6C86.625 199.5 86.9625 198.9 87.3 199.3C87.6375 199.6 87.75 200.5 87.4125 201.2ZM78.4125 201.6C78.075 201.9 77.0625 202 76.275 201.7C75.375 201.4 75.7125 201.1 76.95 201.1C78.1875 201 78.8625 201.3 78.4125 201.6ZM857.362 227.2C856.462 230.2 856.35 229.9 856.237 223.9C856.125 220.3 856.462 217 857.025 216.6C858.262 215.4 858.6 223.4 857.362 227.2ZM1140.75 217C1138.5 218.3 1135.91 218.3 1136.81 217C1137.15 216.4 1138.61 216 1139.96 216C1141.99 216 1142.1 216.2 1140.75 217Z" fill="url(#paint0_linear_2_9370)"/>
<defs>
<linearGradient id="paint0_linear_2_9370" x1="720" y1="597" x2="720" y2="0.481323" gradientUnits="userSpaceOnUse">
<stop stop-color="#D4DAF7"/>
<stop offset="0.375" stop-color="#D4DAF7" stop-opacity="0.84375"/>
<stop offset="1" stop-color="#E9EDFB" stop-opacity="0"/>
</linearGradient>
</defs>
</svg>
