<svg width="688" height="984" viewBox="0 0 688 984" fill="none" xmlns="http://www.w3.org/2000/svg">
<rect x="-78" y="26.167" width="136" height="267" transform="rotate(-45 -78 26.167)" fill="url(#paint0_linear_2_9303)" fill-opacity="0.08"/>
<rect x="209" y="122.167" width="136" height="267" transform="rotate(-45 209 122.167)" fill="url(#paint1_linear_2_9303)" fill-opacity="0.08"/>
<rect x="18" y="311.166" width="136" height="267" transform="rotate(-45 18 311.166)" fill="url(#paint2_linear_2_9303)" fill-opacity="0.08"/>
<rect x="111" y="596.166" width="136" height="267" transform="rotate(-45 111 596.166)" fill="url(#paint3_linear_2_9303)" fill-opacity="0.08"/>
<rect x="305" y="404.166" width="136" height="267" transform="rotate(-45 305 404.166)" fill="url(#paint4_linear_2_9303)" fill-opacity="0.08"/>
<rect x="590" y="500.167" width="136" height="267" transform="rotate(-45 590 500.167)" fill="url(#paint5_linear_2_9303)" fill-opacity="0.08"/>
<rect x="399" y="692.166" width="136" height="267" transform="rotate(-45 399 692.166)" fill="url(#paint6_linear_2_9303)" fill-opacity="0.08"/>
<rect x="-171" y="500.166" width="136" height="267" transform="rotate(-45 -171 500.166)" fill="url(#paint7_linear_2_9303)" fill-opacity="0.08"/>
<rect x="200" y="881.166" width="136" height="267" transform="rotate(-45 200 881.166)" fill="url(#paint8_linear_2_9303)" fill-opacity="0.08"/>
<rect x="-87" y="785.166" width="136" height="267" transform="rotate(-45 -87 785.166)" fill="url(#paint9_linear_2_9303)" fill-opacity="0.08"/>
<rect x="499" y="215.167" width="136" height="267" transform="rotate(-45 499 215.167)" fill="url(#paint10_linear_2_9303)" fill-opacity="0.08"/>
<rect x="403" y="-66.833" width="136" height="267" transform="rotate(-45 403 -66.833)" fill="url(#paint11_linear_2_9303)" fill-opacity="0.08"/>
<rect x="499" y="974.166" width="136" height="267" transform="rotate(-45 499 974.166)" fill="url(#paint12_linear_2_9303)" fill-opacity="0.08"/>
<rect x="114" y="-140.833" width="136" height="267" transform="rotate(-45 114 -140.833)" fill="url(#paint13_linear_2_9303)" fill-opacity="0.08"/>
<path d="M-8.62402 721.798C22.3071 723.094 53.1813 718.131 82.1487 707.209C111.116 696.286 137.58 679.628 159.955 658.232C182.33 636.837 200.156 611.144 212.363 582.695C224.571 554.245 230.909 523.624 230.999 492.666C231.089 461.707 224.927 431.05 212.885 402.53C200.842 374.01 183.166 348.215 160.915 326.69C138.664 305.166 112.297 288.354 83.3933 277.264C54.4897 266.174 23.6446 261.033 -7.29342 262.149L-3.76845 359.844C14.0199 359.202 31.7547 362.158 48.3733 368.534C64.9919 374.911 80.1522 384.576 92.9456 396.952C105.739 409.328 115.902 424.16 122.827 440.558C129.751 456.956 133.293 474.583 133.242 492.383C133.19 510.182 129.546 527.789 122.527 544.146C115.508 560.504 105.259 575.276 92.3938 587.578C79.5289 599.879 64.3129 609.457 47.6577 615.738C31.0025 622.018 13.2508 624.871 -4.53349 624.126L-8.62402 721.798Z" fill="#FBBE37"/>
<defs>
<linearGradient id="paint0_linear_2_9303" x1="-10" y1="26.167" x2="-10" y2="293.167" gradientUnits="userSpaceOnUse">
<stop stop-color="white"/>
<stop offset="0.59375" stop-color="white" stop-opacity="0"/>
</linearGradient>
<linearGradient id="paint1_linear_2_9303" x1="277" y1="122.167" x2="277" y2="389.167" gradientUnits="userSpaceOnUse">
<stop stop-color="white"/>
<stop offset="0.59375" stop-color="white" stop-opacity="0"/>
</linearGradient>
<linearGradient id="paint2_linear_2_9303" x1="86" y1="311.166" x2="86" y2="578.166" gradientUnits="userSpaceOnUse">
<stop stop-color="white"/>
<stop offset="0.59375" stop-color="white" stop-opacity="0"/>
</linearGradient>
<linearGradient id="paint3_linear_2_9303" x1="179" y1="596.166" x2="179" y2="863.166" gradientUnits="userSpaceOnUse">
<stop stop-color="white"/>
<stop offset="0.59375" stop-color="white" stop-opacity="0"/>
</linearGradient>
<linearGradient id="paint4_linear_2_9303" x1="373" y1="404.166" x2="373" y2="671.166" gradientUnits="userSpaceOnUse">
<stop stop-color="white"/>
<stop offset="0.59375" stop-color="white" stop-opacity="0"/>
</linearGradient>
<linearGradient id="paint5_linear_2_9303" x1="658" y1="500.167" x2="658" y2="767.167" gradientUnits="userSpaceOnUse">
<stop stop-color="white"/>
<stop offset="0.59375" stop-color="white" stop-opacity="0"/>
</linearGradient>
<linearGradient id="paint6_linear_2_9303" x1="467" y1="692.166" x2="467" y2="959.166" gradientUnits="userSpaceOnUse">
<stop stop-color="white"/>
<stop offset="0.59375" stop-color="white" stop-opacity="0"/>
</linearGradient>
<linearGradient id="paint7_linear_2_9303" x1="-103" y1="500.166" x2="-103" y2="767.166" gradientUnits="userSpaceOnUse">
<stop stop-color="white"/>
<stop offset="0.59375" stop-color="white" stop-opacity="0"/>
</linearGradient>
<linearGradient id="paint8_linear_2_9303" x1="268" y1="881.166" x2="268" y2="1148.17" gradientUnits="userSpaceOnUse">
<stop stop-color="white"/>
<stop offset="0.59375" stop-color="white" stop-opacity="0"/>
</linearGradient>
<linearGradient id="paint9_linear_2_9303" x1="-19" y1="785.166" x2="-19" y2="1052.17" gradientUnits="userSpaceOnUse">
<stop stop-color="white"/>
<stop offset="0.59375" stop-color="white" stop-opacity="0"/>
</linearGradient>
<linearGradient id="paint10_linear_2_9303" x1="567" y1="215.167" x2="567" y2="482.167" gradientUnits="userSpaceOnUse">
<stop stop-color="white"/>
<stop offset="0.59375" stop-color="white" stop-opacity="0"/>
</linearGradient>
<linearGradient id="paint11_linear_2_9303" x1="471" y1="-66.833" x2="471" y2="200.167" gradientUnits="userSpaceOnUse">
<stop stop-color="white"/>
<stop offset="0.59375" stop-color="white" stop-opacity="0"/>
</linearGradient>
<linearGradient id="paint12_linear_2_9303" x1="567" y1="974.166" x2="567" y2="1241.17" gradientUnits="userSpaceOnUse">
<stop stop-color="white"/>
<stop offset="0.59375" stop-color="white" stop-opacity="0"/>
</linearGradient>
<linearGradient id="paint13_linear_2_9303" x1="182" y1="-140.833" x2="182" y2="126.167" gradientUnits="userSpaceOnUse">
<stop stop-color="white"/>
<stop offset="0.59375" stop-color="white" stop-opacity="0"/>
</linearGradient>
</defs>
</svg>
