<svg width="48" height="48" viewBox="0 0 48 48" fill="none" xmlns="http://www.w3.org/2000/svg">
<path d="M48 24C48 37.2548 37.2548 48 24 48C10.7452 48 0 37.2548 0 24C0 10.7452 10.7452 0 24 0C37.2548 0 48 10.7452 48 24Z" fill="black" fill-opacity="0.05"/>
<path d="M24 33C28.9706 33 33 28.9706 33 24C33 19.0294 28.9706 15 24 15C19.0294 15 15 19.0294 15 24C15 28.9706 19.0294 33 24 33Z" fill="black" fill-opacity="0.05"/>
<path d="M23.9999 33.0001C28.9704 33.0001 32.9999 28.9707 32.9999 24.0001C32.9999 19.0296 28.9704 15.0001 23.9999 15.0001C19.0293 15.0001 14.9999 19.0296 14.9999 24.0001C14.9999 28.9707 19.0293 33.0001 23.9999 33.0001Z" stroke="#16171D" stroke-width="1.4" stroke-linecap="round" stroke-linejoin="round"/>
<path d="M23.9999 20.4V24" stroke="#16171D" stroke-width="1.4" stroke-linecap="round" stroke-linejoin="round"/>
<path d="M23.9999 27.6001H24.0089" stroke="#16171D" stroke-width="1.4" stroke-linecap="round" stroke-linejoin="round"/>
</svg>
