<svg width="24" height="24" viewBox="0 0 24 24" fill="none" xmlns="http://www.w3.org/2000/svg">
<path fill-rule="evenodd" clip-rule="evenodd" d="M16.4325 1.00049C20.0595 1.00049 22.4965 3.54649 22.4965 7.33549V16.1655C22.4965 19.9545 20.0595 22.5005 16.4325 22.5005H7.06046C3.43346 22.5005 0.99646 19.9545 0.99646 16.1655V7.33549C0.99646 3.54649 3.43346 1.00049 7.06046 1.00049H16.4325ZM16.4325 2.50049H7.06046C4.28846 2.50049 2.49646 4.39749 2.49646 7.33549V16.1655C2.49646 19.1035 4.28846 21.0005 7.06046 21.0005H16.4325C19.2055 21.0005 20.9965 19.1035 20.9965 16.1655V7.33549C20.9965 4.39749 19.2055 2.50049 16.4325 2.50049ZM7.11756 9.20299C7.53156 9.20299 7.86756 9.53899 7.86756 9.95299V16.813C7.86756 17.227 7.53156 17.563 7.11756 17.563C6.70356 17.563 6.36756 17.227 6.36756 16.813V9.95299C6.36756 9.53899 6.70356 9.20299 7.11756 9.20299ZM11.7846 5.91899C12.1986 5.91899 12.5346 6.25499 12.5346 6.66899V16.812C12.5346 17.226 12.1986 17.562 11.7846 17.562C11.3706 17.562 11.0346 17.226 11.0346 16.812V6.66899C11.0346 6.25499 11.3706 5.91899 11.7846 5.91899ZM16.3749 12.828C16.7889 12.828 17.1249 13.164 17.1249 13.578V16.812C17.1249 17.226 16.7889 17.562 16.3749 17.562C15.9609 17.562 15.6249 17.226 15.6249 16.812V13.578C15.6249 13.164 15.9609 12.828 16.3749 12.828Z" fill="#3754DB"/>
</svg>
