<svg width="24" height="24" viewBox="0 0 24 24" fill="none" xmlns="http://www.w3.org/2000/svg">
<path fill-rule="evenodd" clip-rule="evenodd" d="M11.7483 1.00024C14.6213 1.00024 17.3213 2.11724 19.3493 4.14624C23.5413 8.33824 23.5413 15.1582 19.3493 19.3502C17.2943 21.4062 14.5273 22.4942 11.7243 22.4942C10.1963 22.4942 8.65832 22.1712 7.21932 21.5052C6.79532 21.3352 6.39832 21.1752 6.11332 21.1752C5.78532 21.1772 5.34432 21.3292 4.91832 21.4762C4.04432 21.7762 2.95632 22.1502 2.15132 21.3482C1.34932 20.5452 1.71932 19.4602 2.01732 18.5872C2.16432 18.1572 2.31532 17.7132 2.31532 17.3772C2.31532 17.1012 2.18232 16.7492 1.97832 16.2422C0.105315 12.1972 0.971315 7.32224 4.14832 4.14724C6.17632 2.11824 8.87532 1.00024 11.7483 1.00024ZM11.7493 2.50024C9.27632 2.50024 6.95332 3.46224 5.20832 5.20824C2.47432 7.94024 1.73032 12.1352 3.35532 15.6482C3.58932 16.2272 3.81532 16.7912 3.81532 17.3772C3.81532 17.9622 3.61432 18.5512 3.43732 19.0712C3.29132 19.4992 3.07032 20.1452 3.21232 20.2872C3.35132 20.4312 4.00132 20.2042 4.43032 20.0572C4.94532 19.8812 5.52932 19.6792 6.10832 19.6752C6.68832 19.6752 7.23532 19.8952 7.81432 20.1282C11.3613 21.7682 15.5563 21.0222 18.2893 18.2902C21.8953 14.6822 21.8953 8.81324 18.2893 5.20724C16.5433 3.46124 14.2213 2.50024 11.7493 2.50024ZM15.6962 11.1629C16.2482 11.1629 16.6962 11.6099 16.6962 12.1629C16.6962 12.7159 16.2482 13.1629 15.6962 13.1629C15.1442 13.1629 14.6922 12.7159 14.6922 12.1629C14.6922 11.6099 15.1352 11.1629 15.6872 11.1629H15.6962ZM11.6874 11.1629C12.2394 11.1629 12.6874 11.6099 12.6874 12.1629C12.6874 12.7159 12.2394 13.1629 11.6874 13.1629C11.1354 13.1629 10.6834 12.7159 10.6834 12.1629C10.6834 11.6099 11.1254 11.1629 11.6784 11.1629H11.6874ZM7.67822 11.1629C8.23022 11.1629 8.67822 11.6099 8.67822 12.1629C8.67822 12.7159 8.23022 13.1629 7.67822 13.1629C7.12622 13.1629 6.67422 12.7159 6.67422 12.1629C6.67422 11.6099 7.11722 11.1629 7.66922 11.1629H7.67822Z" fill="#3754DB"/>
</svg>
