<svg width="24" height="24" viewBox="0 0 24 24" fill="none" xmlns="http://www.w3.org/2000/svg">
<path d="M7.91976 13.4697C9.32976 13.4697 10.4598 14.6107 10.4598 16.0307V19.4397C10.4598 20.8497 9.32976 21.9997 7.91976 21.9997H4.53976C3.13976 21.9997 1.99976 20.8497 1.99976 19.4397V16.0307C1.99976 14.6107 3.13976 13.4697 4.53976 13.4697H7.91976ZM19.4599 13.4697C20.8599 13.4697 21.9999 14.6107 21.9999 16.0307V19.4397C21.9999 20.8497 20.8599 21.9997 19.4599 21.9997H16.0799C14.6699 21.9997 13.5399 20.8497 13.5399 19.4397V16.0307C13.5399 14.6107 14.6699 13.4697 16.0799 13.4697H19.4599ZM7.91976 2C9.32976 2 10.4598 3.15 10.4598 4.561V7.97C10.4598 9.39 9.32976 10.53 7.91976 10.53H4.53976C3.13976 10.53 1.99976 9.39 1.99976 7.97V4.561C1.99976 3.15 3.13976 2 4.53976 2H7.91976ZM19.4599 2C20.8599 2 21.9999 3.15 21.9999 4.561V7.97C21.9999 9.39 20.8599 10.53 19.4599 10.53H16.0799C14.6699 10.53 13.5399 9.39 13.5399 7.97V4.561C13.5399 3.15 14.6699 2 16.0799 2H19.4599Z" fill="#3754DB"/>
</svg>
