<svg width="24" height="24" viewBox="0 0 24 24" fill="none" xmlns="http://www.w3.org/2000/svg">
<path fill-rule="evenodd" clip-rule="evenodd" d="M11.7389 2C17.1089 2 21.4769 6.368 21.4769 11.738C21.4769 14.2715 20.5046 16.5823 18.9135 18.3165L22.0443 21.4407C22.3373 21.7337 22.3383 22.2077 22.0453 22.5007C21.8993 22.6487 21.7063 22.7217 21.5143 22.7217C21.3233 22.7217 21.1313 22.6487 20.9843 22.5027L17.8157 19.343C16.1489 20.6778 14.0356 21.477 11.7389 21.477C6.36888 21.477 1.99988 17.108 1.99988 11.738C1.99988 6.368 6.36888 2 11.7389 2ZM11.7389 3.5C7.19588 3.5 3.49988 7.195 3.49988 11.738C3.49988 16.281 7.19588 19.977 11.7389 19.977C16.2809 19.977 19.9769 16.281 19.9769 11.738C19.9769 7.195 16.2809 3.5 11.7389 3.5Z" fill="#3754DB"/>
</svg>
