<svg width="24" height="24" viewBox="0 0 24 24" fill="none" xmlns="http://www.w3.org/2000/svg">
<path fill-rule="evenodd" clip-rule="evenodd" d="M12.2671 2.00049C12.9831 2.00049 13.6791 2.29449 14.1781 2.80549C14.6761 3.31949 14.9511 4.02449 14.9301 4.73949C14.9321 4.90049 14.9851 5.08649 15.0811 5.24949C15.2401 5.51949 15.4911 5.70949 15.7891 5.78749C16.0871 5.86149 16.3991 5.82149 16.6641 5.66449C17.9441 4.93349 19.5731 5.37149 20.3041 6.64149L20.9271 7.72049C20.9431 7.74949 20.9571 7.77749 20.9691 7.80649C21.6311 9.05749 21.1891 10.6325 19.9591 11.3515C19.7801 11.4545 19.6351 11.5985 19.5351 11.7725C19.3801 12.0415 19.3371 12.3615 19.4151 12.6555C19.4951 12.9555 19.6861 13.2045 19.9551 13.3585C20.5621 13.7075 21.0151 14.2955 21.1961 14.9745C21.3771 15.6525 21.2781 16.3885 20.9251 16.9955L20.2611 18.1015C19.5301 19.3575 17.9011 19.7925 16.6341 19.0605C16.4651 18.9635 16.2701 18.9105 16.0761 18.9055H16.0701C15.7811 18.9055 15.4841 19.0285 15.2681 19.2435C15.0491 19.4625 14.9291 19.7545 14.9311 20.0645C14.9241 21.5335 13.7291 22.7215 12.2671 22.7215H11.0141C9.54508 22.7215 8.35008 21.5275 8.35008 20.0585C8.34808 19.8775 8.29608 19.6895 8.19908 19.5265C8.04208 19.2525 7.78808 19.0565 7.49508 18.9785C7.20408 18.9005 6.88508 18.9435 6.62308 19.0955C5.99508 19.4455 5.25608 19.5305 4.58008 19.3405C3.90508 19.1495 3.32208 18.6855 2.98008 18.0705L2.35508 16.9935C1.62408 15.7255 2.05908 14.1005 3.32508 13.3685C3.68408 13.1615 3.90708 12.7755 3.90708 12.3615C3.90708 11.9475 3.68408 11.5605 3.32508 11.3535C2.05808 10.6175 1.62408 8.98849 2.35408 7.72049L3.03208 6.60749C3.75308 5.35349 5.38308 4.91149 6.65408 5.64149C6.82708 5.74449 7.01508 5.79649 7.20608 5.79849C7.82908 5.79849 8.35008 5.28449 8.36008 4.65249C8.35608 3.95549 8.63108 3.28649 9.13208 2.78149C9.63508 2.27749 10.3031 2.00049 11.0141 2.00049H12.2671ZM12.2671 3.50049H11.0141C10.7041 3.50049 10.4141 3.62149 10.1951 3.83949C9.97708 4.05849 9.85808 4.34949 9.86008 4.65949C9.83908 6.12149 8.64408 7.29849 7.19708 7.29849C6.73308 7.29349 6.28608 7.16849 5.89808 6.93649C5.35308 6.62649 4.64108 6.81749 4.32208 7.37249L3.64508 8.48549C3.33508 9.02349 3.52508 9.73449 4.07708 10.0555C4.89608 10.5295 5.40708 11.4135 5.40708 12.3615C5.40708 13.3095 4.89608 14.1925 4.07508 14.6675C3.52608 14.9855 3.33608 15.6925 3.65408 16.2425L4.28508 17.3305C4.44108 17.6115 4.69608 17.8145 4.99108 17.8975C5.28508 17.9795 5.60908 17.9445 5.87908 17.7945C6.27608 17.5615 6.73808 17.4405 7.20208 17.4405C7.43108 17.4405 7.66008 17.4695 7.88408 17.5295C8.56008 17.7115 9.14708 18.1635 9.49508 18.7705C9.72108 19.1515 9.84608 19.5965 9.85008 20.0505C9.85008 20.7005 10.3721 21.2215 11.0141 21.2215H12.2671C12.9061 21.2215 13.4281 20.7035 13.4311 20.0645C13.4271 19.3585 13.7031 18.6875 14.2081 18.1825C14.7061 17.6845 15.4021 17.3855 16.0981 17.4055C16.5541 17.4165 16.9931 17.5395 17.3801 17.7595C17.9371 18.0785 18.6481 17.8885 18.9701 17.3385L19.6341 16.2315C19.7821 15.9765 19.8251 15.6565 19.7461 15.3615C19.6681 15.0665 19.4721 14.8105 19.2081 14.6595C18.5901 14.3035 18.1491 13.7295 17.9661 13.0415C17.7851 12.3665 17.8841 11.6295 18.2371 11.0225C18.4671 10.6225 18.8041 10.2855 19.2081 10.0535C19.7501 9.73649 19.9401 9.02749 19.6251 8.47549C19.6121 8.45349 19.6001 8.43049 19.5901 8.40649L19.0041 7.39049C18.6851 6.83549 17.9751 6.64449 17.4181 6.96149C16.8161 7.31749 16.1001 7.41949 15.4121 7.23849C14.7251 7.06049 14.1491 6.62549 13.7901 6.01149C13.5601 5.62749 13.4351 5.18049 13.4311 4.72549C13.4401 4.38349 13.3201 4.07649 13.1021 3.85149C12.8851 3.62749 12.5801 3.50049 12.2671 3.50049ZM11.645 8.97459C13.512 8.97459 15.031 10.4946 15.031 12.3616C15.031 14.2286 13.512 15.7466 11.645 15.7466C9.77798 15.7466 8.25898 14.2286 8.25898 12.3616C8.25898 10.4946 9.77798 8.97459 11.645 8.97459ZM11.645 10.4746C10.605 10.4746 9.75898 11.3216 9.75898 12.3616C9.75898 13.4016 10.605 14.2466 11.645 14.2466C12.685 14.2466 13.531 13.4016 13.531 12.3616C13.531 11.3216 12.685 10.4746 11.645 10.4746Z" fill="#3754DB"/>
</svg>
