<svg width="24" height="24" viewBox="0 0 24 24" fill="none" xmlns="http://www.w3.org/2000/svg">
<path fill-rule="evenodd" clip-rule="evenodd" d="M15.9089 2C19.0529 2 21.1649 4.153 21.1649 7.357V16.553C21.1649 19.785 19.1179 21.887 15.9499 21.907L8.25688 21.91C5.11288 21.91 2.99988 19.757 2.99988 16.553V7.357C2.99988 4.124 5.04688 2.023 8.21488 2.004L15.9079 2H15.9089ZM15.9089 3.5L8.21988 3.504C5.89188 3.518 4.49988 4.958 4.49988 7.357V16.553C4.49988 18.968 5.90488 20.41 8.25588 20.41L15.9449 20.407C18.2729 20.393 19.6649 18.951 19.6649 16.553V7.357C19.6649 4.942 18.2609 3.5 15.9089 3.5ZM15.716 15.4737C16.13 15.4737 16.466 15.8097 16.466 16.2237C16.466 16.6377 16.13 16.9737 15.716 16.9737H8.49598C8.08198 16.9737 7.74598 16.6377 7.74598 16.2237C7.74598 15.8097 8.08198 15.4737 8.49598 15.4737H15.716ZM15.716 11.2872C16.13 11.2872 16.466 11.6232 16.466 12.0372C16.466 12.4512 16.13 12.7872 15.716 12.7872H8.49598C8.08198 12.7872 7.74598 12.4512 7.74598 12.0372C7.74598 11.6232 8.08198 11.2872 8.49598 11.2872H15.716ZM11.2507 7.1104C11.6647 7.1104 12.0007 7.4464 12.0007 7.8604C12.0007 8.2744 11.6647 8.6104 11.2507 8.6104H8.49568C8.08168 8.6104 7.74568 8.2744 7.74568 7.8604C7.74568 7.4464 8.08168 7.1104 8.49568 7.1104H11.2507Z" fill="#3754DB"/>
</svg>
