<svg width="24" height="24" viewBox="0 0 24 24" fill="none" xmlns="http://www.w3.org/2000/svg">
<path fill-rule="evenodd" clip-rule="evenodd" d="M11.8868 14.414L11.9998 14.414L12.2523 14.4149C14.1829 14.4276 18.5948 14.6226 18.5948 17.613C18.5948 20.5837 14.3367 20.7775 12.2824 20.7901L11.5213 20.7901C9.59063 20.7774 5.17784 20.5826 5.17784 17.596C5.17784 14.6215 9.59063 14.4275 11.5213 14.4149L11.7739 14.414C11.8131 14.414 11.8508 14.414 11.8868 14.414ZM11.8868 15.914C9.51085 15.914 6.67784 16.206 6.67784 17.596C6.67784 18.9545 9.34175 19.2722 11.6697 19.2902L11.8868 19.291C14.2628 19.291 17.0948 19 17.0948 17.613C17.0948 16.209 14.2628 15.914 11.8868 15.914ZM19.8404 14.0082C22.2634 14.3712 22.7724 15.5092 22.7724 16.4002C22.7724 16.9442 22.5584 17.9372 21.1284 18.4822C21.0404 18.5152 20.9504 18.5312 20.8614 18.5312C20.5594 18.5312 20.2744 18.3472 20.1604 18.0482C20.0124 17.6612 20.2074 17.2272 20.5944 17.0802C21.2724 16.8222 21.2724 16.5372 21.2724 16.4002C21.2724 15.9622 20.7154 15.6562 19.6174 15.4922C19.2084 15.4302 18.9254 15.0492 18.9864 14.6382C19.0474 14.2282 19.4274 13.9552 19.8404 14.0082ZM4.78624 14.6382C4.84724 15.0492 4.56424 15.4302 4.15524 15.4922C3.05724 15.6562 2.50024 15.9622 2.50024 16.4002C2.50024 16.5372 2.50024 16.8212 3.17924 17.0802C3.56624 17.2272 3.76124 17.6612 3.61324 18.0482C3.49924 18.3472 3.21424 18.5312 2.91224 18.5312C2.82324 18.5312 2.73324 18.5152 2.64524 18.4822C1.21424 17.9362 1.00024 16.9432 1.00024 16.4002C1.00024 15.5102 1.50924 14.3712 3.93324 14.0082C4.34624 13.9562 4.72424 14.2282 4.78624 14.6382ZM11.8868 4C14.4068 4 16.4558 6.05 16.4558 8.569C16.4558 11.088 14.4068 13.138 11.8868 13.138H11.8598C10.6398 13.134 9.49685 12.656 8.64084 11.792C7.78284 10.929 7.31384 9.783 7.31881 8.566C7.31881 6.05 9.36784 4 11.8868 4ZM11.8868 5.5C10.1948 5.5 8.81882 6.877 8.81882 8.569C8.81585 9.389 9.12985 10.156 9.70485 10.735C10.2798 11.314 11.0458 11.635 11.8618 11.638L11.8868 12.388V11.638C13.5788 11.638 14.9558 10.262 14.9558 8.569C14.9558 6.877 13.5788 5.5 11.8868 5.5ZM18.0758 4.9795C19.8338 5.2685 21.1108 6.7725 21.1108 8.5555C21.1068 10.3505 19.7658 11.8905 17.9908 12.1395C17.9558 12.1445 17.9208 12.1465 17.8868 12.1465C17.5188 12.1465 17.1978 11.8755 17.1448 11.5005C17.0878 11.0895 17.3728 10.7105 17.7838 10.6535C18.8238 10.5075 19.6088 9.6055 19.6108 8.5535C19.6108 7.5105 18.8628 6.6285 17.8318 6.4595C17.4238 6.3925 17.1468 6.0065 17.2138 5.5975C17.2818 5.1885 17.6648 4.9145 18.0758 4.9795ZM6.55984 5.5975C6.62684 6.0065 6.34984 6.3925 5.94184 6.4595C4.91084 6.6285 4.16284 7.5105 4.16284 8.5555C4.16484 9.6055 4.94984 10.5085 5.98884 10.6535C6.39984 10.7105 6.68484 11.0895 6.62784 11.5005C6.57484 11.8755 6.25384 12.1465 5.88584 12.1465C5.85184 12.1465 5.81684 12.1445 5.78184 12.1395C4.00684 11.8905 2.66684 10.3505 2.66284 8.5575C2.66284 6.7725 3.93984 5.2685 5.69784 4.9795C6.11884 4.9135 6.49184 5.1905 6.55984 5.5975Z" fill="#3754DB"/>
</svg>
