<svg width="24" height="24" viewBox="0 0 24 24" fill="none" xmlns="http://www.w3.org/2000/svg">
<path fill-rule="evenodd" clip-rule="evenodd" d="M19.8398 18.1932C19.8398 21.4892 15.3198 21.8702 11.9208 21.8702L11.6775 21.8699C9.51196 21.8647 3.99976 21.728 3.99976 18.1732C3.99976 14.9444 8.33811 14.5129 11.7112 14.4967L12.164 14.4964C14.3294 14.5016 19.8398 14.6383 19.8398 18.1932ZM11.9208 15.9962C7.65976 15.9962 5.49976 16.7282 5.49976 18.1732C5.49976 19.6312 7.65976 20.3702 11.9208 20.3702C16.1808 20.3702 18.3398 19.6382 18.3398 18.1932C18.3398 16.7352 16.1808 15.9962 11.9208 15.9962ZM11.9208 1.99976C14.8488 1.99976 17.2298 4.38176 17.2298 7.30976C17.2298 10.2378 14.8488 12.6188 11.9208 12.6188H11.8888C8.96676 12.6098 6.59976 10.2268 6.60972 7.30676C6.60972 4.38176 8.99176 1.99976 11.9208 1.99976ZM11.9208 3.42776C9.77976 3.42776 8.03774 5.16876 8.03774 7.30976C8.03076 9.44376 9.75976 11.1838 11.8918 11.1918L11.9208 11.9058V11.1918C14.0608 11.1918 15.8018 9.44976 15.8018 7.30976C15.8018 5.16876 14.0608 3.42776 11.9208 3.42776Z" fill="#3754DB"/>
</svg>
