<svg width="16" height="10" viewBox="0 0 16 10" fill="none" xmlns="http://www.w3.org/2000/svg">
<path d="M7.03046 5.30059L7.02919 5.00551C7.02919 3.77914 7.10101 2.6611 7.20919 1.93226L7.30396 1.47903C7.35669 1.23898 7.42601 0.965669 7.49828 0.826143C7.76282 0.31577 8.28009 0 8.83372 0H8.8819C9.2428 0.0119332 10.001 0.328621 10.001 0.339636C11.221 0.851526 13.5746 2.39643 14.6617 3.49782L14.9776 3.82849C15.0603 3.91811 15.1532 4.02417 15.2109 4.10685C15.4036 4.36203 15.5 4.6778 15.5 4.99357C15.5 5.34606 15.3918 5.67377 15.1873 5.9418L14.8627 6.29206L14.79 6.36681C13.8037 7.4362 11.2282 9.18487 9.88098 9.72003L9.67757 9.79798C9.4328 9.88572 9.08985 9.99036 8.8819 10C8.61736 10 8.36463 9.9385 8.12373 9.81733C7.82282 9.64751 7.58282 9.37947 7.4501 9.0637C7.36555 8.84524 7.23283 8.18891 7.23283 8.17698C7.11115 7.51522 7.0406 6.47098 7.03046 5.30059ZM0.5 4.99963C0.5 4.30108 1.0609 3.73472 1.75271 3.73472L4.8354 4.00734C5.37812 4.00734 5.81812 4.45162 5.81812 4.99963C5.81812 5.54856 5.37812 5.99192 4.8354 5.99192L1.75271 6.26455C1.0609 6.26455 0.5 5.69818 0.5 4.99963Z" fill="#6684FF"/>
</svg>
