<svg width="24" height="24" viewBox="0 0 24 24" fill="none" xmlns="http://www.w3.org/2000/svg">
<g clip-path="url(#clip0_2_2580)">
<path d="M11.9705 2.96876C13.0139 2.96876 13.987 3.72029 14.3382 4.92487C14.4672 5.42839 14.5197 5.93298 14.57 6.41932L14.6172 6.86164C14.7975 8.33784 14.7975 15.59 14.6172 17.0769L14.57 17.5354C14.5249 17.9981 14.4788 18.4769 14.3456 18.988C13.9943 20.1893 13.0579 20.9688 11.9946 20.9688C11.9611 20.9688 11.9275 20.9688 11.8898 20.9677C11.3026 20.9677 10.664 20.6069 10.3022 20.2924L6.77576 17.3518H4.96484C3.56705 17.3518 2.54362 16.3394 2.35802 14.773C2.14411 13.2066 2.18605 10.5194 2.35802 9.09581C2.5604 7.61316 3.63207 6.58573 4.96484 6.58573H6.77576L10.2351 3.68808C10.6524 3.3252 11.3885 2.96662 11.9705 2.96876ZM20.503 3.18982C20.9203 2.89351 21.4939 3.00194 21.7801 3.42602C23.3488 5.73533 24.2129 8.7704 24.2129 11.9687C24.2129 15.1691 23.3488 18.203 21.7801 20.5124C21.6092 20.7647 21.3272 20.916 21.0262 20.916C20.8396 20.916 20.6592 20.8581 20.504 20.7486C20.0888 20.4512 19.986 19.8661 20.2733 19.4409C21.6302 17.4419 22.3778 14.7879 22.3778 11.9687C22.3778 9.15045 21.6302 6.49651 20.2733 4.49747C19.986 4.0734 20.0888 3.48721 20.503 3.18982ZM17.3412 6.22715C17.7596 5.93191 18.3311 6.03819 18.6195 6.46334C19.6324 7.95564 20.1913 9.91067 20.1913 11.9688C20.1913 14.0269 19.6324 15.9819 18.6195 17.4742C18.4475 17.7265 18.1665 17.8779 17.8655 17.8779C17.6789 17.8779 17.4975 17.8199 17.3423 17.7104C16.927 17.413 16.8243 16.8268 17.1126 16.4027C17.9148 15.2207 18.3563 13.6457 18.3563 11.9688C18.3563 10.2907 17.9148 8.71682 17.1126 7.53479C16.8243 7.11072 16.927 6.52453 17.3412 6.22715Z" fill="#3754DB"/>
</g>
<defs>
<clipPath id="clip0_2_2580">
<rect width="24" height="24" fill="white"/>
</clipPath>
</defs>
</svg>
