<svg width="20" height="20" viewBox="0 0 20 20" fill="none" xmlns="http://www.w3.org/2000/svg">
<path d="M5.91976 11.4697C7.32976 11.4697 8.45976 12.6107 8.45976 14.0307V17.4397C8.45976 18.8497 7.32976 19.9997 5.91976 19.9997H2.53976C1.13976 19.9997 -0.000244141 18.8497 -0.000244141 17.4397V14.0307C-0.000244141 12.6107 1.13976 11.4697 2.53976 11.4697H5.91976ZM17.4599 11.4697C18.8599 11.4697 19.9999 12.6107 19.9999 14.0307V17.4397C19.9999 18.8497 18.8599 19.9997 17.4599 19.9997H14.0799C12.6699 19.9997 11.5399 18.8497 11.5399 17.4397V14.0307C11.5399 12.6107 12.6699 11.4697 14.0799 11.4697H17.4599ZM5.91976 0C7.32976 0 8.45976 1.15 8.45976 2.561V5.97C8.45976 7.39 7.32976 8.53 5.91976 8.53H2.53976C1.13976 8.53 -0.000244141 7.39 -0.000244141 5.97V2.561C-0.000244141 1.15 1.13976 0 2.53976 0H5.91976ZM17.4599 0C18.8599 0 19.9999 1.15 19.9999 2.561V5.97C19.9999 7.39 18.8599 8.53 17.4599 8.53H14.0799C12.6699 8.53 11.5399 7.39 11.5399 5.97V2.561C11.5399 1.15 12.6699 0 14.0799 0H17.4599Z" fill="#3754DB"/>
</svg>
