<svg width="23" height="22" viewBox="0 0 23 22" fill="none" xmlns="http://www.w3.org/2000/svg">
<path fill-rule="evenodd" clip-rule="evenodd" d="M16.4325 0.000488281C20.0595 0.000488281 22.4965 2.54649 22.4965 6.33549V15.1655C22.4965 18.9545 20.0595 21.5005 16.4325 21.5005H7.06046C3.43346 21.5005 0.99646 18.9545 0.99646 15.1655V6.33549C0.99646 2.54649 3.43346 0.000488281 7.06046 0.000488281H16.4325ZM16.4325 1.50049H7.06046C4.28846 1.50049 2.49646 3.39749 2.49646 6.33549V15.1655C2.49646 18.1035 4.28846 20.0005 7.06046 20.0005H16.4325C19.2055 20.0005 20.9965 18.1035 20.9965 15.1655V6.33549C20.9965 3.39749 19.2055 1.50049 16.4325 1.50049ZM7.11756 8.20299C7.53156 8.20299 7.86756 8.53899 7.86756 8.95299V15.813C7.86756 16.227 7.53156 16.563 7.11756 16.563C6.70356 16.563 6.36756 16.227 6.36756 15.813V8.95299C6.36756 8.53899 6.70356 8.20299 7.11756 8.20299ZM11.7846 4.91899C12.1986 4.91899 12.5346 5.25499 12.5346 5.66899V15.812C12.5346 16.226 12.1986 16.562 11.7846 16.562C11.3706 16.562 11.0346 16.226 11.0346 15.812V5.66899C11.0346 5.25499 11.3706 4.91899 11.7846 4.91899ZM16.3749 11.828C16.7889 11.828 17.1249 12.164 17.1249 12.578V15.812C17.1249 16.226 16.7889 16.562 16.3749 16.562C15.9609 16.562 15.6249 16.226 15.6249 15.812V12.578C15.6249 12.164 15.9609 11.828 16.3749 11.828Z" fill="#3754DB"/>
</svg>
