<svg width="20" height="20" viewBox="0 0 20 20" fill="none" xmlns="http://www.w3.org/2000/svg">
<path d="M14.6694 0.000488281C18.0704 0.000488281 19.9904 1.92949 20.0004 5.33049V14.6705C20.0004 18.0705 18.0704 20.0005 14.6694 20.0005H5.33037C1.92937 20.0005 0.000366211 18.0705 0.000366211 14.6705V5.33049C0.000366211 1.92949 1.92937 0.000488281 5.33037 0.000488281H14.6694ZM10.5004 4.13049C10.2194 3.96049 9.87937 3.96049 9.61037 4.13049C9.33937 4.29949 9.19037 4.61049 9.21937 4.92049V15.1105C9.27037 15.5405 9.62937 15.8605 10.0494 15.8605C10.4804 15.8605 10.8394 15.5405 10.8794 15.1105V4.92049C10.9194 4.61049 10.7704 4.29949 10.5004 4.13049ZM5.83037 7.41049C5.56037 7.24049 5.21937 7.24049 4.95037 7.41049C4.67937 7.58049 4.53037 7.88949 4.56037 8.20049V15.1105C4.59937 15.5405 4.95937 15.8605 5.38937 15.8605C5.82037 15.8605 6.17937 15.5405 6.21937 15.1105V8.20049C6.25037 7.88949 6.09937 7.58049 5.83037 7.41049ZM15.0894 11.0405C14.8204 10.8705 14.4804 10.8705 14.2004 11.0405C13.9294 11.2105 13.7804 11.5095 13.8204 11.8305V15.1105C13.8604 15.5405 14.2194 15.8605 14.6504 15.8605C15.0704 15.8605 15.4294 15.5405 15.4804 15.1105V11.8305C15.5094 11.5095 15.3604 11.2105 15.0894 11.0405Z" fill="#3754DB"/>
</svg>
