<svg width="22" height="22" viewBox="0 0 22 22" fill="none" xmlns="http://www.w3.org/2000/svg">
<path fill-rule="evenodd" clip-rule="evenodd" d="M10.7483 0.000244141C13.6213 0.000244141 16.3213 1.11724 18.3493 3.14624C22.5413 7.33824 22.5413 14.1582 18.3493 18.3502C16.2943 20.4062 13.5273 21.4942 10.7243 21.4942C9.19632 21.4942 7.65832 21.1712 6.21932 20.5052C5.79532 20.3352 5.39832 20.1752 5.11332 20.1752C4.78532 20.1772 4.34432 20.3292 3.91832 20.4762C3.04432 20.7762 1.95632 21.1502 1.15132 20.3482C0.349315 19.5452 0.719315 18.4602 1.01732 17.5872C1.16432 17.1572 1.31532 16.7132 1.31532 16.3772C1.31532 16.1012 1.18232 15.7492 0.978315 15.2422C-0.894685 11.1972 -0.0286849 6.32224 3.14832 3.14724C5.17632 1.11824 7.87532 0.000244141 10.7483 0.000244141ZM10.7493 1.50024C8.27632 1.50024 5.95332 2.46224 4.20832 4.20824C1.47432 6.94024 0.730315 11.1352 2.35532 14.6482C2.58932 15.2272 2.81532 15.7912 2.81532 16.3772C2.81532 16.9622 2.61432 17.5512 2.43732 18.0712C2.29132 18.4992 2.07032 19.1452 2.21232 19.2872C2.35132 19.4312 3.00132 19.2042 3.43032 19.0572C3.94532 18.8812 4.52932 18.6792 5.10832 18.6752C5.68832 18.6752 6.23532 18.8952 6.81432 19.1282C10.3613 20.7682 14.5563 20.0222 17.2893 17.2902C20.8953 13.6822 20.8953 7.81324 17.2893 4.20724C15.5433 2.46124 13.2213 1.50024 10.7493 1.50024ZM14.6962 10.1629C15.2482 10.1629 15.6962 10.6099 15.6962 11.1629C15.6962 11.7159 15.2482 12.1629 14.6962 12.1629C14.1442 12.1629 13.6922 11.7159 13.6922 11.1629C13.6922 10.6099 14.1352 10.1629 14.6872 10.1629H14.6962ZM10.6874 10.1629C11.2394 10.1629 11.6874 10.6099 11.6874 11.1629C11.6874 11.7159 11.2394 12.1629 10.6874 12.1629C10.1354 12.1629 9.68342 11.7159 9.68342 11.1629C9.68342 10.6099 10.1254 10.1629 10.6784 10.1629H10.6874ZM6.67822 10.1629C7.23022 10.1629 7.67822 10.6099 7.67822 11.1629C7.67822 11.7159 7.23022 12.1629 6.67822 12.1629C6.12622 12.1629 5.67422 11.7159 5.67422 11.1629C5.67422 10.6099 6.11722 10.1629 6.66922 10.1629H6.67822Z" fill="#3754DB"/>
</svg>
