<svg width="19" height="20" viewBox="0 0 19 20" fill="none" xmlns="http://www.w3.org/2000/svg">
<path fill-rule="evenodd" clip-rule="evenodd" d="M12.9089 0C16.0529 0 18.1649 2.153 18.1649 5.357V14.553C18.1649 17.785 16.1179 19.887 12.9499 19.907L5.25688 19.91C2.11288 19.91 -0.00012207 17.757 -0.00012207 14.553V5.357C-0.00012207 2.124 2.04688 0.023 5.21488 0.004L12.9079 0H12.9089ZM12.9089 1.5L5.21988 1.504C2.89188 1.518 1.49988 2.958 1.49988 5.357V14.553C1.49988 16.968 2.90488 18.41 5.25588 18.41L12.9449 18.407C15.2729 18.393 16.6649 16.951 16.6649 14.553V5.357C16.6649 2.942 15.2609 1.5 12.9089 1.5ZM12.716 13.4737C13.13 13.4737 13.466 13.8097 13.466 14.2237C13.466 14.6377 13.13 14.9737 12.716 14.9737H5.49598C5.08198 14.9737 4.74598 14.6377 4.74598 14.2237C4.74598 13.8097 5.08198 13.4737 5.49598 13.4737H12.716ZM12.716 9.2872C13.13 9.2872 13.466 9.6232 13.466 10.0372C13.466 10.4512 13.13 10.7872 12.716 10.7872H5.49598C5.08198 10.7872 4.74598 10.4512 4.74598 10.0372C4.74598 9.6232 5.08198 9.2872 5.49598 9.2872H12.716ZM8.25068 5.1104C8.66468 5.1104 9.00068 5.4464 9.00068 5.8604C9.00068 6.2744 8.66468 6.6104 8.25068 6.6104H5.49568C5.08168 6.6104 4.74568 6.2744 4.74568 5.8604C4.74568 5.4464 5.08168 5.1104 5.49568 5.1104H8.25068Z" fill="#3754DB"/>
</svg>
