<svg width="22" height="17" viewBox="0 0 22 17" fill="none" xmlns="http://www.w3.org/2000/svg">
<path fill-rule="evenodd" clip-rule="evenodd" d="M10.8868 10.414L10.9998 10.414L11.2523 10.4149C13.1829 10.4276 17.5948 10.6226 17.5948 13.613C17.5948 16.5837 13.3367 16.7775 11.2824 16.7901L10.5213 16.7901C8.59063 16.7774 4.17784 16.5826 4.17784 13.596C4.17784 10.6215 8.59063 10.4275 10.5213 10.4149L10.7739 10.414C10.8131 10.414 10.8508 10.414 10.8868 10.414ZM10.8868 11.914C8.51085 11.914 5.67784 12.206 5.67784 13.596C5.67784 14.9545 8.34175 15.2722 10.6697 15.2902L10.8868 15.291C13.2628 15.291 16.0948 15 16.0948 13.613C16.0948 12.209 13.2628 11.914 10.8868 11.914ZM18.8404 10.0082C21.2634 10.3712 21.7724 11.5092 21.7724 12.4002C21.7724 12.9442 21.5584 13.9372 20.1284 14.4822C20.0404 14.5152 19.9504 14.5312 19.8614 14.5312C19.5594 14.5312 19.2744 14.3472 19.1604 14.0482C19.0124 13.6612 19.2074 13.2272 19.5944 13.0802C20.2724 12.8222 20.2724 12.5372 20.2724 12.4002C20.2724 11.9622 19.7154 11.6562 18.6174 11.4922C18.2084 11.4302 17.9254 11.0492 17.9864 10.6382C18.0474 10.2282 18.4274 9.9552 18.8404 10.0082ZM3.78624 10.6382C3.84724 11.0492 3.56424 11.4302 3.15524 11.4922C2.05724 11.6562 1.50024 11.9622 1.50024 12.4002C1.50024 12.5372 1.50024 12.8212 2.17924 13.0802C2.56624 13.2272 2.76124 13.6612 2.61324 14.0482C2.49924 14.3472 2.21424 14.5312 1.91224 14.5312C1.82324 14.5312 1.73324 14.5152 1.64524 14.4822C0.214244 13.9362 0.000244141 12.9432 0.000244141 12.4002C0.000244141 11.5102 0.509244 10.3712 2.93324 10.0082C3.34624 9.9562 3.72424 10.2282 3.78624 10.6382ZM10.8868 0C13.4068 0 15.4558 2.05 15.4558 4.569C15.4558 7.088 13.4068 9.138 10.8868 9.138H10.8598C9.63984 9.134 8.49685 8.656 7.64084 7.792C6.78284 6.929 6.31384 5.783 6.31881 4.566C6.31881 2.05 8.36784 0 10.8868 0ZM10.8868 1.5C9.19485 1.5 7.81882 2.877 7.81882 4.569C7.81585 5.389 8.12985 6.156 8.70485 6.735C9.27985 7.314 10.0458 7.635 10.8618 7.638L10.8868 8.388V7.638C12.5788 7.638 13.9558 6.262 13.9558 4.569C13.9558 2.877 12.5788 1.5 10.8868 1.5ZM17.0758 0.9795C18.8338 1.2685 20.1108 2.7725 20.1108 4.5555C20.1068 6.3505 18.7658 7.8905 16.9908 8.1395C16.9558 8.1445 16.9208 8.1465 16.8868 8.1465C16.5188 8.1465 16.1978 7.8755 16.1448 7.5005C16.0878 7.0895 16.3728 6.7105 16.7838 6.6535C17.8238 6.5075 18.6088 5.6055 18.6108 4.5535C18.6108 3.5105 17.8628 2.6285 16.8318 2.4595C16.4238 2.3925 16.1468 2.0065 16.2138 1.5975C16.2818 1.1885 16.6648 0.9145 17.0758 0.9795ZM5.55984 1.5975C5.62684 2.0065 5.34984 2.3925 4.94184 2.4595C3.91084 2.6285 3.16284 3.5105 3.16284 4.5555C3.16484 5.6055 3.94984 6.5085 4.98884 6.6535C5.39984 6.7105 5.68484 7.0895 5.62784 7.5005C5.57484 7.8755 5.25384 8.1465 4.88584 8.1465C4.85184 8.1465 4.81684 8.1445 4.78184 8.1395C3.00684 7.8905 1.66684 6.3505 1.66284 4.5575C1.66284 2.7725 2.93984 1.2685 4.69784 0.9795C5.11884 0.9135 5.49184 1.1905 5.55984 1.5975Z" fill="#3754DB"/>
</svg>
