<svg width="20" height="21" viewBox="0 0 20 21" fill="none" xmlns="http://www.w3.org/2000/svg">
<path fill-rule="evenodd" clip-rule="evenodd" d="M10.2671 0.000488281C10.9831 0.000488281 11.6791 0.294488 12.1781 0.805488C12.6761 1.31949 12.9511 2.02449 12.9301 2.73949C12.9321 2.90049 12.9851 3.08649 13.0811 3.24949C13.2401 3.51949 13.4911 3.70949 13.7891 3.78749C14.0871 3.86149 14.3991 3.82149 14.6641 3.66449C15.9441 2.93349 17.5731 3.37149 18.3041 4.64149L18.9271 5.72049C18.9431 5.74949 18.9571 5.77749 18.9691 5.80649C19.6311 7.05749 19.1891 8.63249 17.9591 9.35149C17.7801 9.45449 17.6351 9.59849 17.5351 9.77249C17.3801 10.0415 17.3371 10.3615 17.4151 10.6555C17.4951 10.9555 17.6861 11.2045 17.9551 11.3585C18.5621 11.7075 19.0151 12.2955 19.1961 12.9745C19.3771 13.6525 19.2781 14.3885 18.9251 14.9955L18.2611 16.1015C17.5301 17.3575 15.9011 17.7925 14.6341 17.0605C14.4651 16.9635 14.2701 16.9105 14.0761 16.9055H14.0701C13.7811 16.9055 13.4841 17.0285 13.2681 17.2435C13.0491 17.4625 12.9291 17.7545 12.9311 18.0645C12.9241 19.5335 11.7291 20.7215 10.2671 20.7215H9.01408C7.54508 20.7215 6.35008 19.5275 6.35008 18.0585C6.34808 17.8775 6.29608 17.6895 6.19908 17.5265C6.04208 17.2525 5.78808 17.0565 5.49508 16.9785C5.20408 16.9005 4.88508 16.9435 4.62308 17.0955C3.99508 17.4455 3.25608 17.5305 2.58008 17.3405C1.90508 17.1495 1.32208 16.6855 0.980076 16.0705L0.355076 14.9935C-0.375924 13.7255 0.0590756 12.1005 1.32508 11.3685C1.68408 11.1615 1.90708 10.7755 1.90708 10.3615C1.90708 9.94749 1.68408 9.56049 1.32508 9.35349C0.0580757 8.61749 -0.375924 6.98849 0.354076 5.72049L1.03208 4.60749C1.75308 3.35349 3.38308 2.91149 4.65408 3.64149C4.82708 3.74449 5.01508 3.79649 5.20608 3.79849C5.82908 3.79849 6.35008 3.28449 6.36008 2.65249C6.35608 1.95549 6.63108 1.28649 7.13208 0.781488C7.63508 0.277488 8.30308 0.000488281 9.01408 0.000488281H10.2671ZM10.2671 1.50049H9.01408C8.70408 1.50049 8.41408 1.62149 8.19508 1.83949C7.97708 2.05849 7.85808 2.34949 7.86008 2.65949C7.83908 4.12149 6.64408 5.29849 5.19708 5.29849C4.73308 5.29349 4.28608 5.16849 3.89808 4.93649C3.35308 4.62649 2.64108 4.81749 2.32208 5.37249L1.64508 6.48549C1.33508 7.02349 1.52508 7.73449 2.07708 8.05549C2.89608 8.52949 3.40708 9.41349 3.40708 10.3615C3.40708 11.3095 2.89608 12.1925 2.07508 12.6675C1.52608 12.9855 1.33608 13.6925 1.65408 14.2425L2.28508 15.3305C2.44108 15.6115 2.69608 15.8145 2.99108 15.8975C3.28508 15.9795 3.60908 15.9445 3.87908 15.7945C4.27608 15.5615 4.73808 15.4405 5.20208 15.4405C5.43108 15.4405 5.66008 15.4695 5.88408 15.5295C6.56008 15.7115 7.14708 16.1635 7.49508 16.7705C7.72108 17.1515 7.84608 17.5965 7.85008 18.0505C7.85008 18.7005 8.37208 19.2215 9.01408 19.2215H10.2671C10.9061 19.2215 11.4281 18.7035 11.4311 18.0645C11.4271 17.3585 11.7031 16.6875 12.2081 16.1825C12.7061 15.6845 13.4021 15.3855 14.0981 15.4055C14.5541 15.4165 14.9931 15.5395 15.3801 15.7595C15.9371 16.0785 16.6481 15.8885 16.9701 15.3385L17.6341 14.2315C17.7821 13.9765 17.8251 13.6565 17.7461 13.3615C17.6681 13.0665 17.4721 12.8105 17.2081 12.6595C16.5901 12.3035 16.1491 11.7295 15.9661 11.0415C15.7851 10.3665 15.8841 9.62949 16.2371 9.02249C16.4671 8.62249 16.8041 8.28549 17.2081 8.05349C17.7501 7.73649 17.9401 7.02749 17.6251 6.47549C17.6121 6.45349 17.6001 6.43049 17.5901 6.40649L17.0041 5.39049C16.6851 4.83549 15.9751 4.64449 15.4181 4.96149C14.8161 5.31749 14.1001 5.41949 13.4121 5.23849C12.7251 5.06049 12.1491 4.62549 11.7901 4.01149C11.5601 3.62749 11.4351 3.18049 11.4311 2.72549C11.4401 2.38349 11.3201 2.07649 11.1021 1.85149C10.8851 1.62749 10.5801 1.50049 10.2671 1.50049ZM9.64498 6.97459C11.512 6.97459 13.031 8.49459 13.031 10.3616C13.031 12.2286 11.512 13.7466 9.64498 13.7466C7.77798 13.7466 6.25898 12.2286 6.25898 10.3616C6.25898 8.49459 7.77798 6.97459 9.64498 6.97459ZM9.64498 8.47459C8.60498 8.47459 7.75898 9.32159 7.75898 10.3616C7.75898 11.4016 8.60498 12.2466 9.64498 12.2466C10.685 12.2466 11.531 11.4016 11.531 10.3616C11.531 9.32159 10.685 8.47459 9.64498 8.47459Z" fill="#3754DB"/>
</svg>
