<svg width="20" height="20" viewBox="0 0 20 20" fill="none" xmlns="http://www.w3.org/2000/svg">
<path d="M10.7171 0C11.4734 0 12.1581 0.42 12.5362 1.04C12.7201 1.34 12.8428 1.71 12.8121 2.1C12.7917 2.4 12.8837 2.7 13.0472 2.98C13.5684 3.83 14.7232 4.15 15.6225 3.67C16.6342 3.09 17.9117 3.44 18.4942 4.43L19.1789 5.61C19.7716 6.6 19.4446 7.87 18.4227 8.44C17.554 8.95 17.2474 10.08 17.7686 10.94C17.9321 11.21 18.1161 11.44 18.4022 11.58C18.7599 11.77 19.0358 12.07 19.23 12.37C19.6081 12.99 19.5775 13.75 19.2096 14.42L18.4942 15.62C18.1161 16.26 17.4109 16.66 16.6853 16.66C16.3277 16.66 15.9291 16.56 15.6021 16.36C15.3364 16.19 15.0298 16.13 14.7027 16.13C13.691 16.13 12.8428 16.96 12.8121 17.95C12.8121 19.1 11.8719 20 10.6967 20H9.3068C8.12133 20 7.18113 19.1 7.18113 17.95C7.16069 16.96 6.31247 16.13 5.30073 16.13C4.96348 16.13 4.6569 16.19 4.40141 16.36C4.07438 16.56 3.6656 16.66 3.31813 16.66C2.58232 16.66 1.87717 16.26 1.49905 15.62L0.793898 14.42C0.415774 13.77 0.395334 12.99 0.773459 12.37C0.936972 12.07 1.24356 11.77 1.59102 11.58C1.87717 11.44 2.06112 11.21 2.23486 10.94C2.74584 10.08 2.43925 8.95 1.57059 8.44C0.558848 7.87 0.231821 6.6 0.814337 5.61L1.49905 4.43C2.09178 3.44 3.35901 3.09 4.38097 3.67C5.27007 4.15 6.42488 3.83 6.94608 2.98C7.10959 2.7 7.20157 2.4 7.18113 2.1C7.16069 1.71 7.27311 1.34 7.46728 1.04C7.8454 0.42 8.53012 0.02 9.27614 0H10.7171ZM10.012 7.18C8.40748 7.18 7.10959 8.44 7.10959 10.01C7.10959 11.58 8.40748 12.83 10.012 12.83C11.6164 12.83 12.8837 11.58 12.8837 10.01C12.8837 8.44 11.6164 7.18 10.012 7.18Z" fill="#3754DB"/>
</svg>
