<svg width="20" height="20" viewBox="0 0 20 20" fill="none" xmlns="http://www.w3.org/2000/svg">
<path d="M10 0.000244141C15.53 0.000244141 20 4.48024 20 10.0002C20 15.5302 15.53 20.0002 10 20.0002C4.48 20.0002 0 15.5302 0 10.0002C0 4.48024 4.48 0.000244141 10 0.000244141ZM9.65 4.93024C9.24 4.93024 8.9 5.26024 8.9 5.68024V10.7302C8.9 10.9902 9.04 11.2302 9.27 11.3702L13.19 13.7102C13.31 13.7802 13.44 13.8202 13.58 13.8202C13.83 13.8202 14.08 13.6902 14.22 13.4502C14.43 13.1002 14.32 12.6402 13.96 12.4202L10.4 10.3002V5.68024C10.4 5.26024 10.06 4.93024 9.65 4.93024Z" fill="#3754DB"/>
</svg>
