<svg width="22" height="19" viewBox="0 0 22 19" fill="none" xmlns="http://www.w3.org/2000/svg">
<path d="M9.97052 0.96876C11.0139 0.96876 11.987 1.72029 12.3382 2.92487C12.4672 3.42839 12.5197 3.93298 12.57 4.41932L12.6172 4.86164C12.7975 6.33784 12.7975 13.59 12.6172 15.0769L12.57 15.5354C12.5249 15.9981 12.4788 16.4769 12.3456 16.988C11.9943 18.1893 11.0579 18.9688 9.99463 18.9688C9.96108 18.9688 9.92752 18.9688 9.88977 18.9677C9.30256 18.9677 8.66396 18.6069 8.3022 18.2924L4.77576 15.3518H2.96484C1.56705 15.3518 0.543624 14.3394 0.358022 12.773C0.144108 11.2066 0.186052 8.5194 0.358022 7.09581C0.560401 5.61316 1.63207 4.58573 2.96484 4.58573H4.77576L8.23509 1.68808C8.65243 1.3252 9.38854 0.966622 9.97052 0.96876ZM18.503 1.18982C18.9203 0.89351 19.4939 1.00194 19.7801 1.42602C21.3488 3.73533 22.2129 6.7704 22.2129 9.96865C22.2129 13.1691 21.3488 16.203 19.7801 18.5124C19.6092 18.7647 19.3272 18.916 19.0262 18.916C18.8396 18.916 18.6592 18.8581 18.504 18.7486C18.0888 18.4512 17.986 17.8661 18.2733 17.4409C19.6302 15.4419 20.3778 12.7879 20.3778 9.96865C20.3778 7.15045 19.6302 4.49651 18.2733 2.49747C17.986 2.0734 18.0888 1.48721 18.503 1.18982ZM15.3412 4.22715C15.7596 3.93191 16.3311 4.03819 16.6195 4.46334C17.6324 5.95564 18.1913 7.91067 18.1913 9.96876C18.1913 12.0269 17.6324 13.9819 16.6195 15.4742C16.4475 15.7265 16.1665 15.8779 15.8655 15.8779C15.6789 15.8779 15.4975 15.8199 15.3423 15.7104C14.927 15.413 14.8243 14.8268 15.1126 14.4027C15.9148 13.2207 16.3563 11.6457 16.3563 9.96876C16.3563 8.29072 15.9148 6.71682 15.1126 5.53479C14.8243 5.11072 14.927 4.52453 15.3412 4.22715Z" fill="#3754DB"/>
</svg>
