<svg width="21" height="16" viewBox="0 0 21 16" fill="none" xmlns="http://www.w3.org/2000/svg">
<path fill-rule="evenodd" clip-rule="evenodd" d="M10.4739 0.335374C10.5049 0.354374 10.5359 0.374374 10.5639 0.397374C11.9156 1.45919 12.0149 3.43311 12.0197 7.37502L12.0199 7.75037C12.0199 11.9444 11.9579 14.0094 10.5639 15.1054C10.5359 15.1274 10.5049 15.1484 10.4729 15.1664C10.0589 15.4024 9.63789 15.5024 9.21789 15.5024C7.82689 15.5024 6.44789 14.4074 5.37389 13.5554C4.88889 13.1704 4.15589 12.5884 3.90289 12.5624C3.61589 12.5404 3.36789 12.5314 3.14889 12.5254C2.35089 12.4964 1.71989 12.4754 0.977886 11.8634C0.085086 11.1281 0.003096 9.67106 0 8.38683L0.000886 7.96637L0.001886 7.75037L0.000886 7.53437L0 7.11395C0.003096 5.82987 0.085086 4.37367 0.977886 3.63837C1.72089 3.02637 2.35289 3.00437 3.15289 2.97737C3.37089 2.96937 3.61789 2.96137 3.90489 2.94037C4.15589 2.91337 4.88889 2.33137 5.37389 1.94637C6.77289 0.835374 8.68889 -0.681626 10.4739 0.335374ZM18.4494 1.22717C21.1624 5.13117 21.1624 10.3742 18.4494 14.2752C18.3034 14.4842 18.0704 14.5962 17.8334 14.5962C17.6854 14.5962 17.5364 14.5522 17.4054 14.4612C17.0654 14.2252 16.9814 13.7582 17.2184 13.4172C19.6114 9.97717 19.6114 5.52817 17.2184 2.08217C16.9814 1.74217 17.0654 1.27517 17.4064 1.03817C17.7464 0.801174 18.2124 0.886174 18.4494 1.22717ZM9.20789 1.50637C8.33989 1.50637 7.22989 2.38737 6.30589 3.12137C5.41689 3.82637 4.71489 4.38437 4.01489 4.43637C3.70489 4.45837 3.43889 4.46837 3.20489 4.47637C2.45789 4.50137 2.26889 4.51837 1.93189 4.79637C1.54514 5.114 1.50215 6.28912 1.50013 7.17082L1.50089 7.52737L1.50189 7.74837V7.75237L1.50089 7.97337L1.50013 8.33026C1.50215 9.21262 1.54514 10.3877 1.93189 10.7054C2.26789 10.9834 2.45689 10.9994 3.20189 11.0264C3.43689 11.0334 3.70389 11.0434 4.01489 11.0664C4.71489 11.1174 5.41689 11.6754 6.30589 12.3804C7.40889 13.2554 8.77489 14.3404 9.68089 13.8894C10.4144 13.2536 10.514 11.6016 10.5196 8.1061L10.5199 7.75037C10.5199 4.01037 10.4389 2.26937 9.68089 1.61137C9.53389 1.53837 9.37489 1.50637 9.20789 1.50637ZM15.9814 3.69207C17.4164 6.20007 17.4164 9.31007 15.9814 11.8101C15.8424 12.0521 15.5904 12.1871 15.3304 12.1871C15.2034 12.1871 15.0754 12.1551 14.9574 12.0871C14.5984 11.8811 14.4744 11.4221 14.6804 11.0641C15.8514 9.02307 15.8514 6.48507 14.6804 4.43807C14.4744 4.07807 14.5994 3.62007 14.9584 3.41407C15.3184 3.21207 15.7754 3.33307 15.9814 3.69207Z" fill="#3754DB"/>
</svg>
